<?xml version="1.0" encoding="utf-8"?>
<svg version="1.1" xmlns="http://www.w3.org/2000/svg" viewBox="-1 33 150 30">
<style type="text/css">
	.st0{fill:#000000;}
</style>
<g>
	<polygon class="st0" points="18.7,45.03 18.34,45.39 15.7,48.02 14.54,49.19 4.16,49.19 4.16,45.03"/>
	<polygon class="st0" points="4.23,54.34 1.6,56.97 0,58.57 22.26,58.57 22.26,54.34"/>
	<polygon class="st0" points="0,35.86 1.6,37.46 4.23,40.1 21.37,40.1 21.37,35.86"/>
	<g transform="translate(-160, 0)">
		<path class="st0" d="M299.58,59.29h0.79v-2.48h2.93v2.48h0.79v-5.65h-0.79v2.48h-2.93v-2.48h-0.79V59.29z M294.84,59.29h0.79
			v-4.96h1.94v-0.69h-4.66v0.69h1.94V59.29z M288.69,59.29h3.32V58.6h-2.53v-4.96h-0.79V59.29z M284.22,54.42
			c0,0,0.12,0.51,0.22,0.8l0.62,1.79h-1.71l0.63-1.79c0.1-0.29,0.22-0.8,0.22-0.8H284.22z M285.83,59.29h0.82l-2.03-5.65h-0.83
			l-2.03,5.65h0.82l0.56-1.62h2.13L285.83,59.29z M276.68,59.29h3.41V58.6h-2.62v-1.82h2.02V56.1h-2.02v-1.77h2.49v-0.69h-3.28
			V59.29z M269.43,59.29h0.79v-2.48h2.93v2.48h0.79v-5.65h-0.79v2.48h-2.93v-2.48h-0.79V59.29z M258.92,59.29h0.79v-3.66
			c0-0.32-0.06-0.82-0.06-0.82h0.02c0,0,0.26,0.51,0.47,0.82l2.52,3.66h0.77v-5.65h-0.79v3.67c0,0.31,0.06,0.82,0.06,0.82h-0.02
			c0,0-0.26-0.51-0.47-0.82l-2.51-3.67h-0.78V59.29z M255.39,59.29h0.79v-5.65h-0.79V59.29z M246.35,59.29h3.41V58.6h-2.62v-1.82
			h2.02V56.1h-2.02v-1.77h2.49v-0.69h-3.28V59.29z M238.7,56.46c0,1.73,1.25,2.93,2.77,2.93c1.12,0,1.74-0.69,1.74-0.69h0.02
			c0,0-0.01,0.12-0.01,0.24v0.35h0.7v-2.84h-1.64v0.69h0.92v0.82c0,0-0.62,0.7-1.6,0.7c-1.18,0-2.08-0.9-2.08-2.22
			c0-1.21,0.8-2.18,2.13-2.18c0.96,0,1.59,0.55,1.59,0.55l0.4-0.59c0,0-0.7-0.68-2.06-0.68C239.93,53.55,238.7,54.83,238.7,56.46
			 M232.74,58.6v-4.27h1.02c1.27,0,2.11,0.74,2.11,2.13c0,1.39-0.83,2.14-2.11,2.14H232.74z M231.95,59.29h1.87
			c1.73,0,2.86-1.04,2.86-2.83c0-1.78-1.14-2.82-2.86-2.82h-1.87V59.29z M226.17,59.29h3.42V58.6h-2.62v-1.82h2.02V56.1h-2.02v-1.77
			h2.49v-0.69h-3.28V59.29z M220.74,59.29h3.32V58.6h-2.53v-4.96h-0.79V59.29z M214.61,53.64l-1.1,4.14
			c-0.08,0.31-0.12,0.6-0.12,0.6h-0.02c0,0-0.03-0.3-0.1-0.6l-1-4.14h-0.82l1.44,5.65h0.92l0.97-3.66c0.1-0.36,0.17-0.8,0.17-0.8
			h0.02c0,0,0.07,0.44,0.17,0.8l0.98,3.66h0.92l1.48-5.65h-0.82l-1.04,4.14c-0.08,0.3-0.1,0.6-0.1,0.6h-0.02c0,0-0.04-0.29-0.12-0.6
			l-1.1-4.14H214.61z M204.64,56.43c0-1.23,0.94-2.16,2.09-2.16c1.15,0,2.08,0.93,2.08,2.16c0,1.27-0.93,2.23-2.08,2.23
			C205.58,58.66,204.64,57.7,204.64,56.43 M203.82,56.43c0,1.66,1.27,2.96,2.9,2.96c1.63,0,2.9-1.3,2.9-2.96
			c0-1.62-1.26-2.88-2.9-2.88C205.1,53.55,203.82,54.8,203.82,56.43 M196.95,59.29h0.79v-3.66c0-0.32-0.06-0.82-0.06-0.82h0.02
			c0,0,0.26,0.51,0.47,0.82l2.52,3.66h0.78v-5.65h-0.79v3.67c0,0.31,0.06,0.82,0.06,0.82h-0.02c0,0-0.26-0.51-0.47-0.82l-2.51-3.67
			h-0.78V59.29z M190.77,59.29h0.79V56.7h0.84l1.5,2.59h0.9l-1.74-2.95v-0.02l1.64-2.68h-0.87l-1.42,2.38h-0.84v-2.38h-0.79V59.29z"/>
		<path class="st0" d="M270,44.82v-1.55h0.71c0.46,0,0.7,0.31,0.7,0.77c0,0.46-0.24,0.78-0.73,0.78H270z M268.6,47.79h1.4v-1.77
			h0.98c1.11,0,1.86-0.83,1.86-1.98c0-1.15-0.75-1.97-1.86-1.97h-2.38V47.79z M261.59,45.69c0,1.29,0.94,2.2,2.4,2.2
			c1.44,0,2.38-0.91,2.38-2.2v-3.62h-1.4v3.62c0,0.6-0.39,0.92-0.99,0.92c-0.6,0-0.99-0.32-0.99-0.92v-3.62h-1.4V45.69z
			 M255.22,44.9c0-0.94,0.69-1.64,1.55-1.64c0.86,0,1.54,0.7,1.54,1.64c0,0.98-0.69,1.71-1.54,1.71
			C255.91,46.61,255.22,45.87,255.22,44.9 M253.78,44.9c0,1.68,1.26,2.99,2.99,2.99c1.73,0,2.99-1.31,2.99-2.99
			c0-1.64-1.26-2.92-2.99-2.92C255.04,41.98,253.78,43.26,253.78,44.9 M249.17,44.66v-1.39h0.47c0.7,0,0.86,0.26,0.86,0.69
			c0,0.46-0.28,0.71-0.73,0.71H249.17z M247.77,47.79h1.4v-1.93h0.66l1.02,1.93h1.56l-1.11-2c-0.14-0.24-0.22-0.34-0.22-0.34v-0.02
			c0.57-0.29,0.85-0.95,0.85-1.56c0-0.83-0.41-1.42-1.05-1.66c-0.25-0.1-0.53-0.14-1.11-0.14h-1.99V47.79z M240.26,44.92
			c0,1.87,1.34,2.97,2.81,2.97c0.95,0,1.5-0.5,1.5-0.5h0.02c0,0-0.01,0.12-0.01,0.24v0.16h1.17v-3.23h-2.05v1.19h0.81v0.44
			c0,0-0.49,0.42-1.16,0.42c-0.89,0-1.64-0.65-1.64-1.74c0-0.85,0.49-1.62,1.69-1.62c0.81,0,1.39,0.53,1.39,0.53l0.67-1.05
			c0,0-0.74-0.76-2.2-0.76C241.52,41.98,240.26,43.26,240.26,44.92 M232.19,47.79h3.7v-1.2h-2.3v-1.08h1.74v-1.2h-1.74v-1.04h2.18
			v-1.2h-3.58V47.79z M225.76,47.79h4.46v-1.2h-2.26c-0.26,0-0.44,0.02-0.44,0.02V46.6c0,0,0.19-0.17,0.44-0.52l2.22-3.15v-0.86
			h-4.32v1.2h2.1c0.26,0,0.44-0.02,0.44-0.02v0.02c0,0-0.19,0.17-0.44,0.52l-2.21,3.13V47.79z M218.99,47.79h1.4v-2.66
			c0-0.36-0.06-0.97-0.06-0.97h0.02c0,0,0.26,0.6,0.48,0.97l1.59,2.66h1.41v-5.72h-1.4v2.67c0,0.36,0.06,0.98,0.06,0.98h-0.02
			c0,0-0.26-0.6-0.48-0.98l-1.58-2.67h-1.42V47.79z M213.33,47.79h3.69v-1.2h-2.3v-1.08h1.74v-1.2h-1.74v-1.04h2.18v-1.2h-3.58
			V47.79z M207.8,46.59v-3.32h0.58c0.94,0,1.56,0.56,1.56,1.65c0,1.1-0.59,1.67-1.56,1.67H207.8z M206.4,47.79h2.03
			c1.8,0,2.95-1.07,2.95-2.87c0-1.8-1.15-2.85-2.95-2.85h-2.03V47.79z M202.7,47.79h1.4v-5.72h-1.4V47.79z M197.64,47.79h1.46
			l2.02-5.72h-1.5l-1.02,3.26c-0.11,0.36-0.22,0.92-0.22,0.92h-0.02c0,0-0.1-0.56-0.21-0.92l-1.01-3.26h-1.52L197.64,47.79z
			 M190.67,47.79h3.7v-1.2h-2.3v-1.08h1.74v-1.2h-1.74v-1.04h2.18v-1.2h-3.58V47.79z"/>
	</g>
</g>
</svg>
